# Aspose.3D Wavefront OBJ Exporter
# Copyright 2004-2023 Aspose Pty Ltd.
# File created: 06/13/2023 12:19:28


#
# object part0
#

v 0 0 0
v 3.95985299999999984 0 7.60446099999999968
v 0 -3.95985299999999984 7.60446099999999968
v 0 0 0
v 0 3.95985299999999984 7.60446099999999968
v 3.95985299999999984 0 7.60446099999999968
v 0 0 0
v 0 -3.95985299999999984 7.60446099999999968
v -3.95985299999999984 0 7.60446099999999968
v 0 0 0
v -3.95985299999999984 0 7.60446099999999968
v 0 3.95985299999999984 7.60446099999999968
v 0 -3.95985299999999984 7.60446099999999968
v 3.95985299999999984 0 7.60446099999999968
v 0 0 11.08299000000000056
v 3.95985299999999984 0 7.60446099999999968
v 0 3.95985299999999984 7.60446099999999968
v 0 0 11.08299000000000056
v -3.95985299999999984 0 7.60446099999999968
v 0 -3.95985299999999984 7.60446099999999968
v 0 0 11.08299000000000056
v 0 3.95985299999999984 7.60446099999999968
v -3.95985299999999984 0 7.60446099999999968
v 0 0 11.08299000000000056
# 24 vertices

vn 0.6635542 -0.6635542 -0.34553109999999996
vn 0.6635542 0.6635542 -0.34553109999999996
vn -0.6635542 -0.6635542 -0.34553109999999996
vn -0.6635542 0.6635542 -0.34553109999999996
vn 0.5508254 -0.5508253 0.6270431
vn 0.5508254 0.5508253 0.6270431
vn -0.5508254 -0.5508253 0.6270431
vn -0.5508254 0.5508253 0.6270431
# 8 vertex normals

vt 0.02154541 0.9910278 0
vt 0.02380371 0.9905396 0
vt 0.02160644 0.9899902 0
vt 0.02087402 0.9827881 0
vt 0.02380371 0.9862061 0
vt 0.02087402 0.9801025 0
vt 0.02166748 0.9828491 0
vt 0.02398681 0.9820557 0
vt 0.02166748 0.9812622 0
vt 0.02160644 0.9734497 0
vt 0.02349853 0.973938 0
vt 0.02160644 0.9724121 0
vt 0.02380371 0.9905396 0
vt 0.02160644 0.9899902 0
vt 0.02154541 0.9910278 0
vt 0.02380371 0.9862061 0
vt 0.02087402 0.9801025 0
vt 0.02087402 0.9827881 0
vt 0.02398681 0.9820557 0
vt 0.02166748 0.9812622 0
vt 0.02166748 0.9828491 0
vt 0.02349853 0.973938 0
vt 0.02160644 0.9724121 0
vt 0.02160644 0.9734497 0
# 24 texture coords

g part0
s 1
f 1/1/1 2/2/1 3/3/1
f 4/4/2 5/5/2 6/6/2
f 7/7/3 8/8/3 9/9/3
f 10/10/4 11/11/4 12/12/4
f 13/13/5 14/14/5 15/15/5
f 16/16/6 17/17/6 18/18/6
f 19/19/7 20/20/7 21/21/7
f 22/22/8 23/23/8 24/24/8
#8 polygons

